<?xml version="1.0"?><svg version="1.2" baseProfile="tiny-ps" viewBox="0 0 300 300" xmlns="http://www.w3.org/2000/svg" xmlns:xlink="http://www.w3.org/1999/xlink"><title>logo</title><g><g fill="#b5c8cf" transform="matrix(.1 0 0 -.1 0 300)"><path d="M0 1500V0h3000v3000H0V1500z"/></g><g fill="#9f9c8f" transform="matrix(.1 0 0 -.1 0 300)"><path d="M0 2554v-445l18 5c50 15 106 23 176 25l77 2 32-10c18-6 65-12 106-13l74-3 18-25 19-25 9-75c5-41 8-118 6-170l-2-95-16-65c-23-99-50-225-48-228 1-1-6-19-15-40-28-67-74-218-74-245v-26l-35-75-35-75-22-15-23-14-76-7-75-6-11 13c-6 7-13 26-17 41l-7 28-12-4-12-4 3-24 3-24-31-20-30-20V458L1 0h489c270 0 490 1 490 3 0 1-7 26-14 54l-14 53 5 22 6 21-11-7-11-7 4 30 3 30-13 46-14 46 8 44 8 44-11 5-11 4 15 11 15 10 4-17c2-9 9-21 16-27 6-5 36-44 65-85s72-95 94-120c23-25 61-71 84-102l43-58h327l37 41c20 22 57 73 83 112 25 40 51 75 57 79s22 31 35 60 31 71 41 92l18 40 7-19 7-18-12-171c-6-94-14-181-17-194l-6-22h586l586 1v70l-30-16c-16-9-30-19-30-24 0-4-7-8-15-8h-15v35l-31 27c-17 14-29 28-27 31 3 2 32 11 64 19l59 16 13 16 12 17v195l-57 6-58 7-23 15-24 15-13-6c-7-2-23-26-34-51l-21-47-17 4-18 3-3 29c-2 17-1 50 3 74l6 43 14-11 14-12 22 4 22 3 20 27 20 26 1 125 2 124 23 28 22 29 49-3 50-2v154l-27-28-28-28-64-29-64-29-22-24-23-24-22 16-21 15-80 7-79 7-16 16-16 16 28 15c16 8 54 20 85 26l57 12 17 19 17 19-7 28c-9 37-8 110 6 208l10 80-20 56-21 55 10 33c5 18 18 48 30 68l20 34v174l20 79 20 79 28 24 27 24 68-5 67-4v338h-57c-66 0-235 8-307 15l-49 4-18 17-19 17v64l17 15c10 9 43 28 73 43l55 28 153-6 152-7v570H0v-446zm1140 266c0-5-9-14-20-20l-20-11v9c0 10 21 32 32 32 4 0 8-4 8-10zm1440-855c9-8 24-15 33-15h16l9-17c10-20 25-199 24-278-1-27-2-84-2-125l-1-75 9-24 9-24-14-40c-16-46-20-80-22-198l-1-85-21-23-21-22-26 3-27 3-12 25-13 25v200l-19 110c-24 135-39 259-47 387l-6 98 12 37c6 21 13 43 15 50l4 11 42-4 42-4 17-15zm-65-1085c-3-5-10-10-16-10-5 0-9 5-9 10 0 6 7 10 16 10h15l-6-10zM934 419c-8-14-24-10-24 6v14l15-5 15-6-6-9zm1677-200c24-12 46-24 49-28 3-3 10-6 15-6 6 0 45-16 88-35l76-35 7-18 6-19-7-6-7-7-11 15c-7 8-23 20-37 26-45 21-81 34-90 34h-8l3-17 2-18-4 13c-3 6-9 12-14 12s-8 4-6 9c3 11-55 66-67 63-15-5-44 9-50 23l-5 15h7c5 0 28-10 53-21zm239-171c0-4-6-8-14-8s-17 4-20 8l-5 8h20c10 0 19-4 19-8zM1052 158c-35-45-50-105-36-142l6-16h160l-13 16c-7 9-14 25-16 36l-3 19 10-6c5-3 10-10 10-16 0-11 40-52 46-47 2 3-5 14-16 26s-20 25-20 30-12 19-26 33c-14 13-32 36-40 52l-15 27h-18c-10 0-23-6-29-12zm658-22c-12-32-78-123-93-130-7-2 32-5 85-5l97-1 6 10c3 5 9 32 12 60l6 50-18 20-18 20h-67l-10-24zm-30-100c0-3-4-8-10-11l-10-6v10c0 6 5 11 10 11 6 0 10-2 10-4z"/></g><g fill="#be8e66" transform="matrix(.1 0 0 -.1 0 300)"><path d="M1468 2940c-15-4-47-24-71-44l-44-36-54 2-54 3-49-14-49-14-5-19-4-18-40-11-40-10-67-67c-75-75-139-158-192-247-54-90-59-99-116-245l-53-135-6 22-6 21-19 5-18 5-7-21-6-20 17-13 17-13 15 6 15 6-5-19c-19-66-34-134-73-339-24-126-57-282-74-345s-33-128-35-143c-10-72-89-253-141-323l-23-31-30-6-31-7v-23c0-13-7-37-15-54s-17-43-19-59c-6-47-27-117-42-141l-14-22 12-26 11-25-11-25-12-25-46-12-46-13-8-15c-4-8-10-36-12-62l-6-48h8c4 0 15 9 25 20l18 20h19c11 0 28-5 39-10l19-11v-29c0-35-3-34 67-14 30 9 57 13 60 10 4-3 8-20 10-36l3-31 26-25 25-26-16-18-17-18 14 2c7 1 19 6 27 10l14 9-7-11-6-10 12-5 13-5-22-1-23-1v-35l8 11 7 12 13-14c13-14 9-17-19-15l-16 2V69l14 5 13 5v-8c0-12-21-28-45-34l-20-5 25-1 25-2-20-15-20-15 165 2c170 2 190 4 190 21v10l-15-12-14-12-13 5-13 5 28 11c29 11 52 7 42-9l-5-8 16-6c25-10 84-7 106 5l20 11-6-11-7-11h191v11c0 6-7 37-15 68-17 66-33 163-40 245-2 33-7 67-10 77l-6 16 11 29 11 28 23-50c29-63 111-178 190-269 34-38 74-89 90-112l29-43h322l50 61c81 97 134 199 207 393l11 28 10-17 10-18-1-91c-1-50-6-145-12-211-5-66-10-126-10-132V0h620l2 8c0 4 2 20 3 37l2 30-11 8-11 9 15-4 14-4 7-25 7-24 1 17c1 9 7 19 14 21l12 5-12 1c-7 1-13 6-13 11 0 6 5 9 11 8l11-3 6 25c2 14 5 35 6 48 1 12 5 22 10 22h8l-6 15c-3 8-9 22-12 31l-7 15 28-7c14-4 49-17 76-30s63-25 81-26l32-3 10 27 10 27-15 27-14 27-28 10-28 9 5 12c3 6 10 28 17 48l12 37-25 38c-14 21-28 48-32 61l-7 22-30-2-29-2v-12c0-7-7-15-16-18l-15-6 6 54 7 53-16 31-16 31v80l11 7 11 7 58-28 58-28 16 6c9 4 21 18 28 32l11 25-18 20-18 20h-135l-11 30-10 30h-23c-13 0-30 5-38 10l-15 9 20 15c19 14 24 17 43 20 4 0 18 11 32 24l24 22h74l12 15 12 15-17 6-18 7-34-12-34-13-20 18-19 17-11 39c-5 21-12 78-15 126-7 136-15 224-24 267-5 23-18 127-29 232-12 105-27 236-36 291l-15 101-39 119c-43 132-82 215-148 314l-44 68-75 74c-41 41-104 97-142 125l-67 51-92 45c-51 24-119 54-152 65l-60 20-43-1c-24 0-55-4-70-9zM848 1376c-2-1-11-8-20-15l-18-13v33l10-6 10-6v22l11-6c6-4 9-8 7-9zm1632 4c0-5-2-10-4-10-3 0-8 5-11 10l-6 10h10c6 0 11-4 11-10zm25-340 6-10h-10c-6 0-11 5-11 10 0 6 2 10 4 10 3 0 8-4 11-10zM350 40c0-5-4-10-10-10-5 0-10 5-10 10 0 6 5 10 10 10 6 0 10-4 10-10zm367-14V12l-24 2c-29 1-29 4 0 16 12 5 22 9 23 9 0 1 1-5 1-13zM0 2815v-55h108l6 16c3 9 6 29 6 45v30l-12 3c-7 3-34 7-60 10l-48 6v-55zm2710-765-11-21 12-34 13-35h32l17 35c9 20 17 37 17 40 0 11-34 35-50 35h-19l-11-20zm50-1363c-8-7-16-23-18-37-1-14-5-39-7-57l-6-31 32-23 32-22 13 18 14 19v91l-13 24c-15 30-27 34-47 18zM27 603c-12-11-8-23 8-23h15v15c0 16-12 20-23 8zm2806-269c-8-34-7-50 10-83l12-23-21-17c-11-9-31-23-45-33l-24-16 20-16c27-21 48-20 70 4l18 20h56l35 44 36 43v93h-7c-5 1-40 3-80 7l-72 5-8-28zM1053 148c-11-13-23-32-27-42l-7-19 7-44 6-43h108l-3 48-3 48-23 37c-27 43-31 44-58 15zm659-25-19-38 4-12 5-13h-24l6-15 5-14-15-16-15-15h141v88l13 5 12 4-21 29-21 29-26 3-26 3-19-38zm1154-83c8-43 14-51 14-19 0 13-5 31-10 39l-10 15 6-35zm94-30V0h40v20h-40V10z"/></g><g fill="#8e6e53" transform="matrix(.1 0 0 -.1 0 300)"><path d="M1468 2940c-15-4-47-24-71-44l-44-36-54 2-54 3-49-14-49-14-5-19-4-18-40-11-40-10-67-67c-75-75-139-158-192-247-54-90-59-99-116-245l-53-135-6 22-6 21-19 5-18 5-7-21-6-20 17-13 17-13 15 6 15 6-5-19c-19-66-34-134-73-339-24-126-57-282-74-345s-33-128-35-143c-10-72-89-253-141-323l-23-31-30-6-31-7v-23c0-13-7-37-15-54s-17-43-19-59c-6-47-27-117-42-141l-14-22 12-26 11-25-11-25-12-25-46-12-46-13-8-15c-4-8-10-36-12-62l-6-48h8c4 0 15 9 25 20l18 20h19c11 0 28-5 39-10l19-11v-29c0-35-3-34 67-14 30 9 57 13 60 10 4-3 8-20 10-36l3-31 26-25 25-26-16-18-17-18 14 2c7 1 19 6 27 10l14 9-7-11-6-10 12-5 13-5-22-1-23-1v-35l8 11 7 12 13-14c13-14 9-17-19-15l-16 2V69l14 5 13 5v-8c0-12-21-28-45-34l-20-5 25-1 25-2-20-15-20-15 165 2c170 2 190 4 190 21v10l-15-12-14-12-13 5-13 5 28 11c29 11 52 7 42-9l-5-8 16-6c25-10 84-7 106 5l20 11-6-11-7-11h191v11c0 6-7 37-15 68-17 66-33 163-40 245-2 33-7 67-10 77l-6 16 11 29 11 28 23-50c25-55 128-201 174-250l30-31 24 3c12 1 29 3 37 3l13 1-6 16-6 15 10-6 10-6v10c0 15 16 14 32-2 7-7 31-18 53-25l41-11 69 5 70 6 13 10 13 11 23-13 24-12 5-39 5-38 15-16 16-15 34 42c48 59 103 156 132 230 13 35 34 88 48 118l24 54 8-24c10-32 8-160-5-315-5-66-10-126-10-132V0h620l2 8c0 4 2 20 3 37l2 30-11 8-11 9 15-4 14-4 7-25 7-24 1 17c1 9 7 19 14 21l12 5-12 1c-7 1-13 6-13 11 0 6 5 9 11 8l11-3 6 25c2 14 5 35 6 48 1 12 5 22 10 22h8l-6 15c-3 8-9 22-13 31l-6 16 20-6 20-6 17 18c9 11 34 27 56 37l39 18 18 45 17 45-19 31c-10 17-25 46-34 64l-15 32-28-2-28-2v-12c0-7-7-15-16-18l-15-6 6 54 7 53-16 31-16 31v80l11 7 11 7 58-28 58-28 16 6c9 4 21 18 28 32l11 25-18 20-18 20h-135l-11 30-10 30h-23c-13 0-30 5-38 10l-15 9 20 15c19 14 24 17 43 20 4 0 18 11 32 24l24 22h74l12 15 12 15-17 6-18 7-34-12-34-13-20 18-19 17-11 39c-5 21-12 78-15 126-7 136-15 224-24 267-5 23-18 127-29 232-12 105-27 236-36 291l-15 101-39 119c-43 132-82 215-148 314l-44 68-75 74c-41 41-104 97-142 125l-67 51-92 45c-51 24-119 54-152 65l-60 20-43-1c-24 0-55-4-70-9zm87-574 10-13 17 3 18 2 11-16 11-17-6 18-5 17h9c6 0 10-7 10-15v-15h30v22l21-23 20-24 6 13 5 13 16-13 16-13-8 12-7 13 23-9c13-4 29-6 36-4l12 5v-11c0-6 3-10 8-9 4 1 33-6 66-16l58-17 24-24c13-13 26-35 30-49 3-15 10-29 15-32 15-9 10-21-11-27l-20-5 1-14 1-13 5 13c2 6 9 12 14 12h10l-7-12-8-13 19 15 19 15-8-13-7-12 6-20 6-19 13 5 13 5 6-15c4-9 12-16 19-16h13l31-57 31-58 6-39 6-39-27 26-27 25-40 11-40 10-95 2c-99 2-160-6-160-21v-9l-13 5c-7 2-30-2-52-11l-40-15 27 3 27 4-5-8c-3-5-16-9-30-9h-24v41l-10-6-10-6v9c0 5-8 12-17 14-31 8-38 10-59 19-12 4-42 11-65 14-24 4-63 11-86 16s-68 9-100 10l-59 2-59-31c-33-16-69-39-79-51l-19-21 7-7 6-7 55 18 55 17 11-7 10-6-28-15c-15-9-39-22-54-29-14-7-36-25-48-38l-24-25 6-37c7-44 8-45 49-53l33-7 1-14c2-27 16-50 30-50 8 0 14-4 14-9 0-13 85-40 146-47l51-6 38 12c20 7 52 25 70 42 19 16 38 29 42 29 21 1 35 19 51 64l18 49 32 10 33 9 9-9c5-5 16-42 24-82l15-73 31-56c16-31 30-63 30-70s5-13 12-13h11l-6 7-7 6 11 13 10 12 73-5 73-6 52 18 52 17 9 24 10 24h20c11 0 23 0 27 1 4 0 14-21 21-48l13-48-6-65c-3-36-13-91-22-122l-15-57-20-7-21-6-21 23c-11 13-30 26-41 28-11 1-29 8-40 14s-24 10-29 9c-12-4-58 28-80 56-30 37-58 62-73 62h-13v-12c0-7 9-24 20-38l20-25v-22c0-27-8-28-36-9l-20 15-95 3-94 3-64-9-64-9 6 42 5 42-15 6-15 6-26-22c-15-12-54-34-87-50l-60-28-50-7c-84-12-89-13-126-29l-36-16 10-41c6-22 15-40 19-40s8-7 8-15v-15h28l7-22 7-23 5 18c5 19 18 22 28 6l7-10 13 5 13 5 5-13c7-18-5-35-28-39-11-3-35-8-53-12l-33-8 5-13 5-14-27 6c-15 3-40 10-55 16l-28 11-19 39c-26 54-39 126-44 238-2 52-9 136-16 185l-12 90 6 70c3 39 13 97 21 130l16 60 30 28c17 15 28 27 24 27-3 0 9 16 27 36s37 43 42 52c5 10 27 41 48 70 21 28 36 52 33 52-4 0 3 14 15 31 12 16 24 28 27 26 4-5 67 54 68 64 0 3 16 29 35 57l35 51 35 7c19 4 41 10 48 14l14 7 51-9 52-9 10-13zm-707-990c-2-1-11-8-20-15l-18-13v33l10-6 10-6v22l11-6c6-4 9-8 7-9zm1632 4c0-5-2-10-4-10-3 0-8 5-11 10l-6 10h10c6 0 11-4 11-10zm-1001-90c18-17 50-39 72-50l39-20v-39l19-11c11-5 31-10 45-10h26v-20h51l-5-9-6-9-163 5-162 5-19 18-19 18 8 19c5 10 7 26 6 36l-2 18 33 39c18 21 35 39 38 39 3 1 20-13 39-29zm345-62c2-7 6-20 9-28 7-17 10-38 8-61l-1-16-18 2c-9 0-23 4-30 9l-12 7v-21h-40v15c0 8 4 15 10 15h9l-5 13-5 13 33 36c34 37 38 38 42 16zm-380-220-6-10-9 13-9 14v-35l-12 3-13 2 1-17 2-18h-38v-10c0-6 4-9 9-7 4 1 17-8 27-21l19-22 105-16c144-21 293-22 327-1l11 7 5-19 5-19-17-25c-33-49-49-59-117-72-10-2-21-4-24-5-5-1-147 2-210 5-39 1-70 10-117 31l-33 15-34 44-34 45 7 32 7 33 22 11 21 11-14 20-15 21 31 26 30 26 39-26 40-26-6-10zm241 20h70l-20-8c-45-19-185-5-200 19l-5 9 43-10c23-5 74-10 112-10zm820 12 6-10h-10c-6 0-11 5-11 10 0 6 2 10 4 10 3 0 8-4 11-10zM1264 472c28-20 56-40 61-44l10-9-16 6-17 6-7-11-6-10 8 2c9 3 13-5 13-24v-13l-11 15-11 15 5-22 5-23h-9c-5 0-8-6-6-12l2-13-18 2-18 1 4-12 5-13h-26l3 19 4 18h-41l-5 20-5 20-8-5c-5-3-11-1-15 5l-6 10h26l-11 8-11 7 2 55c2 30 3 56 4 58 2 5 43-19 95-56zM350 40c0-5-4-10-10-10-5 0-10 5-10 10 0 6 5 10 10 10 6 0 10-4 10-10zm367-14V12l-24 2c-29 1-29 4 0 16 12 5 22 9 23 9 0 1 1-5 1-13zM0 2815v-55h108l6 16c3 9 6 29 6 45v30l-12 3c-7 3-34 7-60 10l-48 6v-55zm2710-765-11-21 12-34 13-35h32l17 35c9 20 17 37 17 40 0 11-34 35-50 35h-19l-11-20zm50-1363c-8-7-16-23-18-37-1-14-5-39-7-57l-6-31 32-23 32-22 13 18 14 19v91l-13 24c-15 30-27 34-47 18zM27 603c-12-11-8-23 8-23h15v15c0 16-12 20-23 8zm2806-269c-8-34-7-50 10-83l12-23-21-17c-11-9-31-23-45-33l-24-16 20-16c27-21 48-20 70 4l18 20h56l35 44 36 43v93h-7c-5 1-40 3-80 7l-72 5-8-28zM1053 148c-11-13-23-32-27-42l-7-19 7-44 6-43h108l-3 48-3 48-23 37c-27 43-31 44-58 15zm659-25-19-38 4-12 5-13h-24l6-15 5-14-15-16-15-15h141v88l13 5 12 4-21 29-21 29-26 3-26 3-19-38zm1154-83c8-43 14-51 14-19 0 13-5 31-10 39l-10 15 6-35zm94-30V0h40v20h-40V10z"/></g><g fill="#524236" transform="matrix(.1 0 0 -.1 0 300)"><path d="M1461 2930c-13-6-46-29-73-51l-48-41-28 7c-71 18-131 6-170-32-12-13-28-23-36-23-26 0-110-76-184-167l-74-90-59-104-59-104-40-103c-47-121-91-282-120-442-33-181-41-220-61-296-11-39-20-92-21-118-1-25-6-46-10-46h-7l5-13 5-14-15-43c-8-24-13-47-10-52 3-4 1-8-4-8s-22-33-37-72c-16-40-36-84-44-98-9-14-25-43-36-65s-30-53-43-69c-34-42-91-159-122-251l-27-80 9-25 9-24-19-25c-20-27-33-36-75-51l-28-10 6-10 6-10h32c18 0 38-4 45-9l14-8 6-50 7-50 55 18 55 18 13-11c7-6 10-13 8-16-8-7 23-35 71-63l43-25-7-7-6-7h38l-10-8-10-7-2-60c-2-33-4-71-5-85l-3-25 53-3 52-3v21h35l-15-10-15-10h16c17 0 100 34 112 46l7 7-70 30-70 29 6 9 5 9-15-6-16-6v14c0 15 19 38 32 38 4 0 9-12 9-27l1-28 5 17 4 18 15-14c17-17 19-30 2-20l-11 7 7-12 8-12 15 12 15 13 6-10 7-9 53-3 52-4v11c0 6 5 11 11 11h10l-6-10-6-10 15 6 16 6-7 11-6 10 11-7 11-7 41 27c22 15 38 29 36 32-3 2-19-6-35-18-34-24-36-22-20 14l12 25 8-4c4-3 17 7 28 21l21 27 7-6 6-7h-8c-4 0-1-8 6-17l14-17-12 7-11 7 2-15c1-8 6-18 11-22l8-8-6 11-7 12 15 6 14 5 6-9c3-5 5-24 4-42 0-18 4-48 9-66l11-32-10 5-9 6V46c0-8 6-17 13-19l12-5-15-11-15-11h87l-6 23c-20 71-55 274-61 346l-6 85 7 29 6 30 26-64 25-64 45-62c25-35 47-63 48-63s-1 12-5 27l-8 28 13 66c7 37 13 109 14 160l2 94-11 52c-6 29-20 71-31 93l-20 40-7 61-6 62 14-5c8-2 33-33 56-69 52-79 212-250 273-292 25-17 51-37 59-45 8-7 25-18 38-23l24-9-6-10-6-10h10c6 0 11 4 11 10v9l15-6 16-5 83 41c46 22 97 51 112 64 16 13 39 29 50 35l22 12-3-33c-2-17-8-43-13-57s-17-64-27-110l-16-85-28-40c-37-53-68-126-68-158v-27l8-1c5-1 19-2 32-2l22-2 41 73 42 73 32 97c18 53 38 108 45 122l13 24 11-56 12-57-10-143c-6-79-14-169-17-200l-6-58h583l-5 48c-5 57 0 67 37 76l27 6v13c0 6 11 23 25 35l25 24-6 25-7 25 21-6 21-7 17 26c9 14 22 25 30 25s28 12 45 28l31 27 1 35 2 34-72 1-73 2-24 22-25 23-6 38-7 38 21 21c12 12 21 28 21 37v16l-20-5-20-5-1 16c0 10-2 26-4 36l-4 20 20 17c10 9 19 21 19 28 0 6 4 11 9 11 11 0 20 59 14 93l-5 27-12-1c-30-4-56 2-70 16l-16 16 13 19c6 11 15 20 20 20h8l-6-10-6-10h8c15 0 33 23 33 43v19l14-11 14-11 4 17 5 18-13 35-12 35-1-24-1-25-11 11c-6 6-14 28-19 48l-9 38 16 15 15 16-7 45c-4 25-8 57-10 71-1 14-8 58-15 99l-12 73 5 32 5 31-14 130c-49 455-75 568-181 783l-46 92-66 82-67 82-46 27c-25 15-48 25-51 23-3-3-24 13-48 35-24 23-50 41-57 41-8 0-53 27-100 59-48 32-108 68-133 80l-46 20-64 6-64 5-24-10zm304-130 6-10-15 6c-18 7-21 14-7 14 6 0 13-4 16-10zm-8-56c-3-3-12-4-19-1l-13 5 19 1c11 1 17-2 13-5zm28-32c-3-3-11 0-18 7l-12 12 18-7c10-3 15-9 12-12zm146-18 24-25-15 6c-13 5-46 45-37 45 2 0 14-11 28-26zm-55-30c6-8 16-14 23-14 6 0 11-5 11-11v-10l-12 7c-7 5-29 19-48 32l-35 24 25-7c14-4 30-13 36-21zm-276-185-15-11 23 5 22 5-5-8-6-9 38-10c21-6 43-11 49-11s45-22 85-48c41-26 97-61 124-77 28-15 67-44 87-64l38-35 49-80c27-45 56-96 66-115l17-34 6-81 5-80-54 39-54 39-71 4-72 4-56-16-57-17-19-31-19-31-12-69-12-68 21-23 22-23v-44l39-26 40-26 79-5 79-6 8 14 9 13-11 3-11 4 15 29 14 30h20c10 0 20-1 22-2 1-1 12 4 24 10l22 12-4 30c-4 30-31 80-51 92-6 4-21 15-33 25l-22 18 6 18 7 17h77l19-24 19-25 9-98c5-54 9-154 8-223v-125l-43-140-43-140-34-66c-20-37-60-96-90-132l-54-66-72-49c-40-27-80-51-88-54s-89-2-180 2l-165 7-82 38-83 38v20l-6-6-7-6-41 32c-22 17-49 39-60 47-128 101-181 196-206 370-6 47-14 89-17 93l-5 9-19-21c-22-23-28-25-47-12l-13 8 16 13 15 12-1 22v21l-9-22-9-23h-28l-6 67-7 67 21 19c12 11 26 33 31 49l10 30 9-9c5-5 13-36 18-69l9-59 1 55c3 102 11 205 22 285l12 80 15 30c8 17 29 48 46 70 40 50 126 193 126 210 0 7 16 23 35 36l35 24 66 88 66 88 36 23c40 24 111 44 180 50 24 2 46 7 49 10 4 3 11 6 17 6h11l-15-11zm460-754 14-15h-9c-6 0-18 7-28 15l-19 14-13-5-13-5-8 12-7 12 34-7c18-3 40-13 49-21zm-25-58 18-14-7-11-7-12h-51l6 16c3 9 6 20 6 25 0 13 13 11 35-4zM376 930c0-10-2-17-5-15-2 3-11-1-19-8l-15-12 17 28c22 32 22 32 22 7zM270 731c-5-11-15-23-21-27l-11-6 17 26c20 30 30 35 15 7zm-39-68c-12-20-14-14-5 12 4 9 9 14 11 11 3-2 0-13-6-23zm820-218-9-40 3 50c5 66 7 74 12 50 2-11-1-38-6-60zm1464-43c-3-3-11 0-18 7l-12 12 18-7c10-3 15-9 12-12zm-29-147 19-14h-20c-11 0-31 6-45 14l-25 14 26 1h25l20-15zM820 226c0-3-4-8-10-11l-10-6v10c0 6 5 11 10 11 6 0 10-2 10-4zm447 1734c-21-4-43-12-50-19-6-6-18-11-27-11-10 0-27-9-40-20-27-23-24-24 36-9l46 12 52-12 51-11 13-20 12-20-28-6c-15-3-49-11-76-17l-49-12-27-27c-15-15-30-36-33-48l-5-20 26-5c15-3 44-14 64-24l37-19 4 12c2 6 4-4 5-21l1-33h-15c-8 0-14-4-14-10v-9l43-12 42-11 50 5c28 3 69 13 93 22l43 18-3 17-3 17 14 16c7 10 19 17 26 17h12l12 26c6 14 9 29 7 33-3 4-1 25 5 45l10 37-13 29-13 30-45 19c-111 47-178 58-263 41zm78-159c-6-5-30-12-55-16l-45-7 10 10c11 11 39 19 75 21l24 1-9-9zm-65-87c0-18-14-18-29 0l-12 14 13 5c17 6 28-1 28-19zm166-23-7-11h-48l11 31 11 31 20-20 19-20-6-11zm-591-230-5-10 10-6 10-6v15c0 18-6 21-15 7zm665-162-25-10 19-15c11-8 27-14 35-14 9 0 36-11 60-25 49-29 79-31 107-10 10 8 30 15 44 15 46 1 78 41 44 54l-16 6-29-14-29-14v21l-44-6-44-6-12 14-12 15-37-1c-20 0-47-5-61-10zm370-29c0-6 11-30 24-53l24-42 5-42 5-43-8-5-9-5-6 21-7 20-12-17-13-17-59 8c-98 13-203 18-327 16l-119-2-33 11-34 11-21-11-20-11v-30l15-5 15-6 13 10 13 11 59-8c33-5 106-19 162-31l102-22 77 12 78 12 4-11 4-11 20 11 20 11 22-21c12-12 27-21 33-21h12l6 23c4 12 13 41 22 64l15 41 19 5 19 5v30l-60 52-60 52v-12zm-595-31c-31-9-55-33-55-56v-13h28l32 40c17 22 30 40 28 39-1 0-16-5-33-10zm251-281-29-26 18-19 19-18 81-3 81-4 13 16 13 16-10 13-11 13 5 20 5 19h-156l-29-27zm935 396 1-19 5 13c3 7 2 16-1 19-3 4-6-2-5-13zm147-571c-24-6-23-20 3-34l21-11 17 16 16 17-15 9c-8 5-17 9-20 9-3-1-13-3-22-6zm152-190v-28l9 14c5 8 7 20 4 28-8 21-13 15-13-14zm73-268-5-16 6-7c4-4 33-12 64-18l57-12 13 10 12 10v48h-141l-6-15zM1039 128l-20-33 6-29c3-16 5-37 5-47V0l39 2 39 3-5 8c-2 4 0 7 5 7h10l4 43 4 42-15 27-16 28h-35l-21-32zm687 16-16-15v-28c0-15-4-31-8-36-5-6-13-22-20-37l-12-28h120v35c0 19 5 46 12 61l12 26-23 19c-28 23-45 24-65 3z"/></g><g fill="#161416" transform="matrix(.1 0 0 -.1 0 300)"><path d="m1508 2906 5-9-17 6-16 7-18-18c-10-10-26-21-35-25l-17-6 6-43c4-24 7-45 7-48 1-9-23-60-27-60-3 0-3 6 0 14l6 15-21-6-21-5v34l-15-12-15-12v9c0 5-8 9-19 9h-19l6-15 5-14-11 7-12 7v-41h-21l6 10 6 10h-23l5 14 6 15-16-6-16-6 7 11 7 12h-10c-6 0-13 11-17 24-3 14-12 27-20 30-17 7-44-3-44-16 0-5-13-14-30-19-16-6-31-14-31-17-6-31-9-51-11-72l-3-25-20-18-20-18 45 27c25 15 42 23 38 19l-8-8 12-14 11-14-23-22-24-22 17 21c9 11 17 25 17 30-1 5-9-2-20-15l-20-23 6-9 5-9h-22l6-22 6-23-9 14-10 14-13-22c-8-11-18-21-23-21s-15-8-22-17l-13-18-1 14v13l-17-13-18-14 14 17c7 10 16 16 20 14 3-2 7 8 8 22l1 26 11 4c6 2 11 8 11 14v10l-13-11-14-11-6 7-7 6v-48l-8 13-8 12-21-22c-29-33-93-131-145-223l-46-80-22-70c-12-38-26-79-31-90s-14-33-20-50l-11-30-8 20-8 20-7-43c-4-24-13-49-20-55-6-7-15-28-18-47-18-99-24-151-26-223l-1-38-9 5-9 6 5-20 5-20h-8c-5 0-9-10-10-22-1-39-14-132-23-163-12-38-32-139-38-187l-5-38h19l-5-25-4-25-10 6-10 7 7-23 7-23-11 7-11 7 10-27 11-27-11-7c-6-3-14-21-20-38l-9-32 10 5c5 4 9 13 9 20v14l22 12 21 11-6-17c-4-9-7-20-7-23 0-4-5 0-10 8l-10 15v-17c0-9-3-25-6-35l-7-18 16 20 16 20 1-12c0-6-3-18-6-27l-6-16-9 6-10 6 6-29 7-28-11 15-11 15v-46l-11 7-12 7 5-14c3-8 10-13 16-12l10 2-24-66c-13-36-24-68-24-71s-7 3-15 14l-14 19 16 13 17 12h-14c-8 0-25-10-39-22l-25-23 22 32c12 17 22 34 22 38 0 11-46-48-67-85-11-19-23-34-28-32l-8 3-23-53-23-53-11 3-11 2 6-10 6-10h-19v-22c0-13-2-32-5-43s-6-27-6-34l-1-15-11 11-10 10-1 54v54l-15-28-14-29 9-27 10-27-14-27-14-27 16 7 16 6 9-14c11-17 33-91 31-101-1-5 7-8 18-8 21 0 29-5 82-52l31-28 8 6 9 5 51-27 51-28-4-60-3-60 30-6c17-4 49-17 73-29l44-22 16 4 17 3-82 39-83 38v11c0 11 37 76 43 76 1 0 19-8 39-19l37-18-7-8-7-8 16 5 16 6 13-8 14-9 28 20c15 11 28 17 28 13 0-3 7-1 15 6s15 10 15 7c0-2 17 11 37 29 20 19 41 34 46 34h9l-10 13-11 13 27 2c15 2 36 4 46 5l19 2 9-30c8-26 37-222 38-250V4l20-1c11-1 20-1 20 1 0 1-7 25-15 52-17 58-52 254-60 338l-6 59 12 35 12 36 26-66c14-35 34-76 43-89l17-24-5 31-6 32 12 23c7 13 9 21 5 17l-8-7-20 10-20 11 8 62c5 33 9 78 9 98v37l8-5 8-5 1 23 1 23 8-25c4-14 9-47 10-75 1-27 6-63 10-80l9-30-2 95c0 52-5 111-9 130-5 19-11 48-14 64-2 16-8 45-14 65-5 21-14 81-20 134-5 54-17 126-25 160s-19 88-26 121l-11 58-11-11c-6-6-21-11-33-11h-22l-30 35-31 34 4 66c2 35 7 70 10 75l7 11-13 15-12 15 29 30 29 30 15-4 16-4 10 11 10 11 12 106 11 106 20 45c10 25 35 68 55 95l35 49 31 81 31 81 48 41 49 41 26 46c14 26 26 52 26 58 1 15 36 56 48 56 6 0 12 3 14 8 2 4 18 19 36 35l34 27 10-6 11-7-6 10-7 11 25 6c14 4 25 11 25 16v10h-45l15 10 15 10-27 22c-29 26-48 58-48 84v17l20-18c11-10 20-25 20-33v-15l6 6 7 7 19-22 19-22 37-1 37-1 75-28c41-15 91-36 110-46 107-56 202-114 268-164l53-41 58-85c32-47 73-114 92-150l33-65 7-270 7-270-9-66c-11-84-82-315-119-388-42-83-109-170-179-231l-61-53-10-36c-5-20-14-67-20-106-6-38-22-104-36-145l-26-75-3-50c-1-27-5-59-9-70-3-11 8 9 25 45l31 65 20 85c11 47 26 98 33 113l12 28 6-30c4-17 9-59 13-94l6-64-11-154c-6-85-14-171-17-191l-6-38h32v23c1 12 2 53 3 90l2 68 14 8 13 9 19-5c10-3 19-9 19-14s6-9 14-9 22-10 30-22c9-12 26-28 38-36l23-13-22 6-23 6v-10c0-6 5-11 10-11 20 0 9-19-12-23l-23-3 50-1 50-1 15 11 15 12-14-18-14-17 7-7c9-9 42-15 101-16l50-2 14-13 13-13 52 3 51 3-3 30c-1 17-2 46-3 65l-1 34 11 4 11 4v41l18-16c21-19 42-22 42-7v10h23l22 1 17 22 16 23-50 20-50 19-9 17-9 17 47-15c27-9 62-17 80-20l32-4 13 19c8 11 26 25 41 30l27 11 20 32c11 18 20 39 20 46v13l-11-6c-9-6-128-26-171-28l-17-1 11-13 10-13h-15c-16 0-40 24-32 32 3 2-5 10-18 17l-23 12-12 31c-6 17-9 35-6 39l5 9h-22l6-42c4-24 7-54 7-68v-25l5 17 4 18 29-15c16-8 31-19 34-24l6-8h-50l6 8 5 9-15-6-16-6-1-22-1-21-10 35c-17 62-35 170-30 175 3 3 0 5-5 5h-11l2 17c2 10 0 20-4 23s-10 21-14 40l-6 35 10-20 10-20-5 35-5 35 10-15c5-8 10-23 10-32 0-25 15-22 34 7l17 25-11-2-12-3-1 52-2 51 7-5 8-4v25c0 14 4 28 10 31l10 6-5-43-5-43 9 15c5 8 11 39 13 68l5 53-8 4-8 5-7-22-8-23-7 40-7 40 14 16c8 8 14 21 14 29v12l15-12 15-12v32h30v24c0 14-4 27-9 30l-9 6-11-27-11-28 7 80c3 44 6 101 7 127l1 46 9-5 9-6-6 10c-3 5-8 21-11 36l-5 27h27l-10 43c-18 76-20 91-22 152l-2 60 10 13 10 14-10 6-9 7-3 55c-2 30-8 67-14 82l-10 28 6 15 5 15h-19l3 21c4 27-16 143-41 231-19 70-33 99-24 51l5-28-7 6c-3 3-11 44-17 90-12 95-27 152-60 224-19 43-87 155-94 155-1 0 8-30 21-67 13-36 20-62 15-57-4 5-33 41-63 79-30 39-66 79-79 90l-24 20 14-17 13-18h-9c-5 0-15 6-22 13l-12 12 7-20 8-20-20 15-19 15 19-22c10-13 22-20 27-18 4 3 11 0 14-6l7-10 15 5 14 6-6-10-7-11 32-36 32-36-14-8-13-9-51 53c-28 28-64 63-80 77l-29 25 30-34 30-34-15 8c-8 4-29 19-47 31-38 29-39 29-39 5v-20l7 5c9 5 22-14 25-34l2-14-20 19c-75 67-116 119-62 78 10-8 23-15 28-15s-4 10-20 22-31 25-34 28-27 22-55 42c-27 20-61 49-75 64l-25 28 18-13c9-8 20-11 24-8 3 4-7 12-23 19s-35 19-43 26c-7 7-32 22-55 34-22 11-42 21-44 23-1 1 3 13 10 26l13 25 30-3 30-2-15 9c-8 5-24 10-35 10h-20l15 10 15 10h-27c-16 0-28 3-28 8 0 4-11 7-24 7h-24l6-9zm-198-226 11-20h-9c-6 0-12 9-15 20s-3 20-1 20 8-9 14-20zm-186-85-6-15 18 6 19 7-24-26c-14-15-28-27-32-27h-8l4 21c4 19 23 49 31 49 2 0 1-7-2-15zm26-50c-7-9-15-13-17-11-7 7 7 26 19 26h10l-12-15zm20-14c-10-20-30-37-30-27 0 6 33 46 38 46 1 0-2-9-8-19zm-50-15c0-3-4-8-10-11l-10-6v10c0 6 5 11 10 11 6 0 10-2 10-4zm-140-30c0-3-4-8-10-11l-10-6v10c0 6 5 11 10 11 6 0 10-2 10-4zm-210-691c0-8-2-15-4-15s-6 7-10 15l-5 15h9c6 0 10-7 10-15zm-263-572-5-18v60l5-12c2-7 2-21 0-30zm1873-363c0-5-4-10-10-10-5 0-10 5-10 10 0 6 5 10 10 10 6 0 10-4 10-10zM479 823c-1-10 1-25 5-35l7-16-21-43-22-42 5-26 5-26-19-45-20-45 5 23 4 22h-8c-5 0-10-10-12-22l-4-23-5 32-5 32 7-4c8-6 22 26 14 33-3 3-5 0-5-6 0-7-4-12-9-12h-10l2 19 1 20 8-5 8-5v42l-10-6-10-6v10c0 6 4 11 10 11 5 0 17 16 25 35s22 51 30 70c16 38 28 46 24 18zm-99-56c0-2-10-12-22-23l-23-19 19 23c18 21 26 27 26 19zm93-92c-3-9-8-14-10-11-3 3-2 9 2 15 9 16 15 13 8-4zm1845-36-4-13-7 23-6 24 11-11c5-5 8-16 6-23zM265 603c-20-48-27-55-21-19 4 25 22 56 32 56 3 0-3-17-11-37zm122-45-5-13v50l5-12c2-7 2-19 0-25zm-65-20-12-12v10c0 6 3 14 7 17 3 4 9 5 12 2 2-3-1-11-7-17zm2228-224c0-2-11-4-25-4h-25v17l25-5c14-2 25-6 25-8zm-67-1c-7-2-19-2-25 0l-13 5h50l-12-5zM2360 46c0-2-8-10-17-17l-18-14 14 18c13 16 21 21 21 13zM456 763l-7-18 12 12c7 7 10 15 7 18s-9-2-12-12zm770 2024c3-10 9-15 12-12s0 11-7 18l-12 12 7-18zm-171-77-18-20h9c5 0 15 9 22 20s11 20 9 20-12-9-22-20zm985-204c0-2 8-10 18-17l17-14-14 18c-13 16-21 21-21 13zm39-54c5-10 18-25 27-33l18-14-19 33c-11 17-23 32-28 32h-8l10-18zm-715-511 7-10-28-7c-48-10-49-11-18-18 17-4 58-16 93-27 70-21 88-23 97-9l6 10-11 20-11 21-12-4c-7-2-19 1-27 9-8 7-35 15-58 19l-44 6 6-10zm554-53-36-10-18-19-18-19 12-12 12-12 67 14c85 16 113 26 113 41v11l-12-5c-7-2-27 2-45 10-18 7-34 13-35 12-2-1-20-5-40-11zm-630-75c6-2 18-2 25 0l12 5h-50l13-5zm65 0c9-2 25-2 35 0l17 5h-70l18-5zm-130-23c-18-11-33-22-33-26s60 28 79 43c16 12-20-1-46-17zm202 8c11-6 28-18 38-26l18-16-6 16c-3 8-17 20-31 27-32 14-45 14-19-1zm-120-19c-54-7-115-33-115-49v-10h18c10 0 27 7 38 15 26 19 34 19 34-3v-19l19-17 19-17 33 3 34 3 9 30c6 17 11 32 13 34 1 2 21-13 44-33l41-38 6 7 7 7-42 37-41 37-34 10-33 10-50-7zm570-17c-16-11-36-26-44-35l-13-17 5-15 6-14-9-6c-6-4-10-10-10-15v-8l19 5c11 3 22 11 25 19 9 23 23 16 29-15l6-29 38-7 37-7 13 18c7 10 13 28 13 41v23h15c8 0 28-13 45-30 34-33 41-35 58-18l11 11-18 11c-10 6-38 22-62 35l-43 23-58-5-59-5-14-12-15-12v11c0 16 60 51 88 51h22v20h-55l-30-18zm113 1c7-3 16-2 19 1 4 3-2 6-13 5l-19-1 13-5zm80-36c12-13 22-29 22-35 0-7 5-12 11-12h10l-17 30c-10 16-25 32-33 35l-16 6 23-24zm-510-434c12-2 32-2 45 0l22 4h-90l23-4zm207-13-6-10h15c8 0 18 5 21 10l6 10h-15c-8 0-18-4-21-10zm-420-180 6-10 27 1h27l-20 9c-11 5-26 9-33 9l-13 1 6-10zm495-30-15-10h65v20h-17c-10 0-25-5-33-10zm601-266c1-16 5-40 10-54l8-25-3 48c-2 26-6 50-10 54l-6 6 1-29zm27 9-6-21 8-12 7-12 5 14c3 7 2 22-2 32l-7 20-5-21zm-73-123c3-5 8-10 11-10 2 0 4 5 4 10 0 6-5 10-11 10h-10l6-10zm19-83c-5-15 14-73 22-65 2 3 0 17-6 32-5 15-8 32-4 37 3 5 3 9-1 9-3 0-8-6-11-13zM161 334l1-19 5 13c3 7 2 16-1 19-3 4-6-2-5-13zm895-187-17-12-2-29-2-29 11-4 11-4-5 31-4 30 23 8 22 9-10 6-10 6-17-12zm679-36V71l13-12c6-7 12-23 12-36V0h28l4 62c2 35 2 69 0 76l-4 12h-53v-39z"/></g></g></svg>